<svg width="259" height="58" viewBox="0 0 259 58" fill="none" xmlns="http://www.w3.org/2000/svg">
<path d="M45.864 41.248C46.672 41.248 47.372 41.44 47.964 41.824L47.772 42.7L47.664 42.724C47.128 42.276 46.512 42.052 45.816 42.052C45.056 42.052 44.472 42.316 44.064 42.844C43.656 43.364 43.452 44.128 43.452 45.136C43.452 46.152 43.656 46.928 44.064 47.464C44.472 48 45.048 48.268 45.792 48.268C46.144 48.268 46.492 48.204 46.836 48.076C47.188 47.948 47.508 47.768 47.796 47.536L47.916 47.596L47.832 48.508C47.136 48.892 46.428 49.084 45.708 49.084C44.676 49.084 43.876 48.752 43.308 48.088C42.74 47.416 42.456 46.46 42.456 45.22C42.456 43.948 42.752 42.968 43.344 42.28C43.936 41.592 44.776 41.248 45.864 41.248ZM53.9704 49H53.0704L52.9264 48.352L52.6144 47.464L51.1864 47.452L49.9144 47.464L49.5904 48.304L49.4224 49H48.5344L50.8384 43.024H51.8704L53.9704 49ZM52.3624 46.732L51.3664 43.9H51.2944L50.2024 46.732L51.2584 46.744L52.3624 46.732ZM58.671 48.328L58.611 49H55.431L55.467 47.2L55.431 43.024H56.331L56.295 47.128L56.319 48.244H58.623L58.671 48.328ZM66.3384 49H65.5344L65.4024 47.176L65.0784 44.416H65.0064L63.2904 48.328H62.5824L60.9624 44.416H60.8904L60.5784 47.104L60.4104 49H59.6424L60.3024 43.024H61.3464L61.6464 43.924L62.9544 47.14H63.0264L64.3944 43.876L64.7064 43.024H65.7264L66.3384 49ZM72.9583 45.892C73.8463 46.068 74.2903 46.54 74.2903 47.308C74.2903 47.884 74.0663 48.316 73.6183 48.604C73.1703 48.892 72.5143 49.036 71.6503 49.036C71.1303 49.036 70.6303 49.024 70.1503 49L70.1863 47.2L70.1503 43.024L72.0223 43.012C72.6223 43.012 73.0863 43.14 73.4143 43.396C73.7503 43.644 73.9183 44 73.9183 44.464C73.9183 44.808 73.8343 45.1 73.6663 45.34C73.4983 45.58 73.2623 45.764 72.9583 45.892ZM72.9703 44.572C72.9703 44.276 72.8743 44.06 72.6823 43.924C72.4903 43.788 72.1823 43.72 71.7583 43.72H71.0263L71.0143 45.568L72.0823 45.604C72.3783 45.54 72.5983 45.428 72.7423 45.268C72.8943 45.1 72.9703 44.868 72.9703 44.572ZM71.7583 48.352C72.2783 48.352 72.6743 48.264 72.9463 48.088C73.2263 47.904 73.3663 47.636 73.3663 47.284C73.3663 46.996 73.2703 46.772 73.0783 46.612C72.8863 46.452 72.5943 46.344 72.2023 46.288L71.0143 46.3L71.0023 47.128L71.0263 48.316C71.2743 48.34 71.5183 48.352 71.7583 48.352ZM79.5757 48.232L79.6477 48.304L79.5637 49H75.9277L75.9637 47.2L75.9277 43.024H79.5877L79.6477 43.096L79.5757 43.792L78.0637 43.744L76.8157 43.756L76.8037 45.568L77.9917 45.58L79.0357 45.544L79.0957 45.628L79.0237 46.336L77.9197 46.3L76.8037 46.312L76.7917 47.128L76.8037 48.268L77.9797 48.28L79.5757 48.232ZM81.9705 43.756L81.9585 45.724L82.9905 45.736L84.0465 45.7L84.1065 45.784L84.0465 46.468L82.9065 46.456L81.9465 46.468V47.128L81.9705 49H81.0825L81.1065 47.2L81.0825 43.024H84.5625L84.6105 43.096L84.5385 43.792L83.0625 43.744L81.9705 43.756ZM88.1234 42.952C88.9954 42.952 89.6634 43.208 90.1274 43.72C90.5994 44.232 90.8354 44.956 90.8354 45.892C90.8354 46.908 90.5834 47.696 90.0794 48.256C89.5834 48.808 88.8714 49.084 87.9434 49.084C87.0794 49.084 86.4114 48.824 85.9394 48.304C85.4674 47.776 85.2314 47.028 85.2314 46.06C85.2314 45.068 85.4834 44.304 85.9874 43.768C86.4914 43.224 87.2034 42.952 88.1234 42.952ZM88.0394 43.708C87.4074 43.708 86.9354 43.888 86.6234 44.248C86.3194 44.608 86.1674 45.176 86.1674 45.952C86.1674 46.784 86.3194 47.388 86.6234 47.764C86.9274 48.14 87.3914 48.328 88.0154 48.328C88.6554 48.328 89.1314 48.144 89.4434 47.776C89.7554 47.408 89.9114 46.832 89.9114 46.048C89.9114 45.24 89.7554 44.648 89.4434 44.272C89.1394 43.896 88.6714 43.708 88.0394 43.708ZM95.1991 46.588C95.6871 47.332 96.2271 48.064 96.8191 48.784L96.8071 48.904C96.4711 49.008 96.1951 49.068 95.9791 49.084L95.8231 48.988C95.2151 48.068 94.7551 47.344 94.4431 46.816L93.3151 46.828V47.128L93.3391 49H92.4511L92.4871 47.2L92.4511 43.024L94.4911 43.012C95.1231 43.012 95.6071 43.16 95.9431 43.456C96.2871 43.752 96.4591 44.18 96.4591 44.74C96.4591 45.148 96.3471 45.512 96.1231 45.832C95.9071 46.152 95.5991 46.404 95.1991 46.588ZM93.3271 46.084L94.4551 46.12C95.1671 45.92 95.5231 45.484 95.5231 44.812C95.5231 44.46 95.4191 44.196 95.2111 44.02C95.0031 43.844 94.6871 43.748 94.2631 43.732L93.3391 43.744L93.3271 46.084ZM102.052 48.232L102.124 48.304L102.04 49H98.4042L98.4402 47.2L98.4042 43.024H102.064L102.124 43.096L102.052 43.792L100.54 43.744L99.2922 43.756L99.2802 45.568L100.468 45.58L101.512 45.544L101.572 45.628L101.5 46.336L100.396 46.3L99.2802 46.312L99.2682 47.128L99.2802 48.268L100.456 48.28L102.052 48.232ZM109.38 43.096L109.32 43.852L108.204 43.768H107.604L107.568 47.128L107.604 49H106.704L106.74 47.2L106.716 43.768H106.116L104.976 43.852L104.904 43.768L104.976 43.024H109.332L109.38 43.096ZM115.806 47.128L115.83 49H114.942L114.978 47.2L114.966 46.384L111.714 46.396L111.702 47.128L111.726 49H110.838L110.874 47.2L110.838 43.024H111.738L111.714 45.592L113.334 45.604L114.966 45.592L114.942 43.024H115.842L115.806 47.128ZM121.634 48.232L121.706 48.304L121.622 49H117.986L118.022 47.2L117.986 43.024H121.646L121.706 43.096L121.634 43.792L120.122 43.744L118.874 43.756L118.862 45.568L120.05 45.58L121.094 45.544L121.154 45.628L121.082 46.336L119.978 46.3L118.862 46.312L118.85 47.128L118.862 48.268L120.038 48.28L121.634 48.232ZM126.946 42.964C127.434 42.964 127.922 43.06 128.41 43.252L128.254 44.14L128.11 44.176C127.886 44 127.674 43.872 127.474 43.792C127.274 43.704 127.066 43.66 126.85 43.66C126.506 43.66 126.234 43.752 126.034 43.936C125.834 44.112 125.734 44.316 125.734 44.548C125.734 44.78 125.83 44.968 126.022 45.112C126.222 45.256 126.526 45.416 126.934 45.592C127.294 45.752 127.578 45.896 127.786 46.024C128.002 46.152 128.186 46.324 128.338 46.54C128.498 46.748 128.578 47.004 128.578 47.308C128.578 47.62 128.494 47.912 128.326 48.184C128.158 48.448 127.91 48.664 127.582 48.832C127.262 48.992 126.878 49.072 126.43 49.072C126.15 49.072 125.854 49.04 125.542 48.976C125.238 48.904 124.954 48.8 124.69 48.664L124.798 47.716L124.918 47.668C125.142 47.892 125.402 48.068 125.698 48.196C126.002 48.316 126.282 48.376 126.538 48.376C126.874 48.376 127.15 48.288 127.366 48.112C127.582 47.928 127.69 47.708 127.69 47.452C127.69 47.212 127.59 47.02 127.39 46.876C127.198 46.732 126.894 46.564 126.478 46.372C126.134 46.22 125.85 46.08 125.626 45.952C125.41 45.824 125.226 45.656 125.074 45.448C124.922 45.232 124.846 44.972 124.846 44.668C124.846 44.348 124.93 44.06 125.098 43.804C125.274 43.548 125.518 43.344 125.83 43.192C126.15 43.04 126.522 42.964 126.946 42.964ZM133.872 43.096L133.812 43.852L132.696 43.768H132.096L132.06 47.128L132.096 49H131.196L131.232 47.2L131.208 43.768H130.608L129.468 43.852L129.396 43.768L129.468 43.024H133.824L133.872 43.096ZM137.202 42.952C138.074 42.952 138.742 43.208 139.206 43.72C139.678 44.232 139.914 44.956 139.914 45.892C139.914 46.908 139.662 47.696 139.158 48.256C138.662 48.808 137.95 49.084 137.022 49.084C136.158 49.084 135.49 48.824 135.018 48.304C134.546 47.776 134.31 47.028 134.31 46.06C134.31 45.068 134.562 44.304 135.066 43.768C135.57 43.224 136.282 42.952 137.202 42.952ZM137.118 43.708C136.486 43.708 136.014 43.888 135.702 44.248C135.398 44.608 135.246 45.176 135.246 45.952C135.246 46.784 135.398 47.388 135.702 47.764C136.006 48.14 136.47 48.328 137.094 48.328C137.734 48.328 138.21 48.144 138.522 47.776C138.834 47.408 138.99 46.832 138.99 46.048C138.99 45.24 138.834 44.648 138.522 44.272C138.218 43.896 137.75 43.708 137.118 43.708ZM144.277 46.588C144.765 47.332 145.305 48.064 145.897 48.784L145.885 48.904C145.549 49.008 145.273 49.068 145.057 49.084L144.901 48.988C144.293 48.068 143.833 47.344 143.521 46.816L142.393 46.828V47.128L142.417 49H141.529L141.565 47.2L141.529 43.024L143.569 43.012C144.201 43.012 144.685 43.16 145.021 43.456C145.365 43.752 145.537 44.18 145.537 44.74C145.537 45.148 145.425 45.512 145.201 45.832C144.985 46.152 144.677 46.404 144.277 46.588ZM142.405 46.084L143.533 46.12C144.245 45.92 144.601 45.484 144.601 44.812C144.601 44.46 144.497 44.196 144.289 44.02C144.081 43.844 143.765 43.748 143.341 43.732L142.417 43.744L142.405 46.084ZM153.842 49H153.038L152.906 47.176L152.582 44.416H152.51L150.794 48.328H150.086L148.466 44.416H148.394L148.082 47.104L147.914 49H147.146L147.806 43.024H148.85L149.15 43.924L150.458 47.14H150.53L151.898 43.876L152.21 43.024H153.23L153.842 49Z" fill="#344258"/>
<path d="M27.8286 3.6626C27.8286 3.07733 27.6587 2.56763 27.3189 2.11451C26.9791 1.6614 26.5259 1.34045 25.9407 1.17053L23.543 0.453094V0H33.9834V0.453094L31.5291 1.17053C30.9438 1.34045 30.4907 1.66136 30.1508 2.13335C29.811 2.60535 29.6411 3.13403 29.6411 3.7193V36.1923H28.2062L6.13589 5.0031V32.0199C6.13589 32.6052 6.30581 33.1149 6.64564 33.5681C6.98548 34.0212 7.43859 34.3421 8.02386 34.512L10.4216 35.2294V35.6826H0V35.2294L2.45436 34.512C3.03963 34.3421 3.49274 34.0211 3.83257 33.5492C4.17241 33.0772 4.34232 32.5485 4.34232 31.9633V3.62486C4.34232 2.98296 4.15353 2.43544 3.77593 1.96344C3.39834 1.51033 2.90747 1.18938 2.30332 1.01946L0.0188797 0.453094V0H9.43984L27.8475 26.0917V3.6626H27.8286Z" fill="#2A2F37"/>
<path d="M60.5093 35.2107V35.6638H51.4282V33.2661C50.6164 34.2856 49.4458 35.1352 47.9166 35.8148C47.067 36.2302 45.972 36.4189 44.6504 36.4189C41.7995 36.4189 39.5529 35.8526 37.9481 34.7387C36.3433 33.6248 35.5315 32.0577 35.5315 30.0565C35.5315 29.0747 35.8713 28.1119 36.551 27.1679C37.2307 26.2428 38.2124 25.3932 39.5151 24.638C40.9122 23.8262 42.6491 23.2032 44.7637 22.769C46.8782 22.3347 49.106 22.1271 51.4471 22.1271V19.0685C51.4471 16.7841 51.145 15.1604 50.5597 14.1787C49.9556 13.1969 48.8228 12.7061 47.1236 12.7061C45.8964 12.7061 44.9147 12.9893 44.1973 13.5557C43.461 14.1221 43.1022 14.9339 43.1022 16.0289C43.1022 16.5764 43.291 17.1051 43.6686 17.6337C44.0462 18.1623 44.5371 18.4833 45.1412 18.6343C45.1412 19.2762 44.8014 19.8804 44.1406 20.409C43.4798 20.9565 42.7247 21.2208 41.8751 21.2208C40.4402 21.2208 39.4018 20.8054 38.7222 19.9559C38.0425 19.1063 37.7027 18.1434 37.7027 17.0484C37.7027 15.9534 38.1558 14.9339 39.0809 14.0843C40.006 13.2347 41.1954 12.5739 42.6491 12.1208C44.1029 11.6677 45.6132 11.4412 47.1425 11.4412C50.1255 11.4412 52.5043 12.1397 54.2601 13.5368C56.0159 14.9339 56.8844 16.7841 56.8844 19.0874V32.2465C56.8844 32.8884 57.0732 33.4548 57.4697 33.9457C57.8661 34.4366 58.3759 34.7575 59.0178 34.8897L60.5471 35.1918L60.5093 35.2107ZM51.4282 23.7507C48.5018 23.7507 46.274 24.3171 44.7448 25.4498C43.2155 26.5826 42.4603 28.2629 42.4603 30.4718C42.4603 31.7368 42.819 32.7752 43.5365 33.6059C44.2539 34.4366 45.1224 34.8519 46.1419 34.8519C46.8971 34.8519 47.5578 34.682 48.162 34.3233C48.7473 33.9646 49.3892 33.4548 50.0688 32.7752C50.673 32.171 51.145 31.4725 51.4471 30.6796V23.7507H51.4282Z" fill="#2A2F37"/>
<path d="M76.7081 12.2153V13.7445H69.666V28.9804C69.666 30.7551 70.0436 32.1711 70.7799 33.2661C71.535 34.3611 72.4979 34.8897 73.6873 34.8897C75.0467 34.8897 76.085 34.531 76.8025 33.7947C77.5199 33.0584 77.9541 31.9067 78.1241 30.302H80.0687C79.9365 32.1711 79.2191 33.6625 77.9541 34.7575C76.6892 35.8526 75.0655 36.419 73.0832 36.419C70.44 36.419 68.3066 35.7771 66.683 34.5122C65.0782 33.2283 64.2664 31.5858 64.2664 29.5468V13.7445H59.0745V12.2153C60.6037 12.2153 62.0008 11.8376 63.2846 11.0636C64.5684 10.2895 65.5691 9.23224 66.3431 7.87291C67.0983 6.51357 67.4948 5.00321 67.4948 3.3418H69.6848V12.2153H76.727H76.7081Z" fill="#2A2F37"/>
<path d="M104.518 13.9331C104.121 14.424 103.933 14.9904 103.933 15.6323V32.2464C103.933 32.8883 104.121 33.4547 104.518 33.9456C104.914 34.4364 105.424 34.7574 106.066 34.8895L107.595 35.1916V35.6447H98.5141V33.247C97.7023 34.2288 96.7017 35.0028 95.5122 35.5692C94.3228 36.1356 93.0579 36.4188 91.7363 36.4188C90.1315 36.4188 88.6778 36.0978 87.3185 35.4748C85.978 34.8518 84.9019 33.9456 84.1089 32.775C83.316 31.6045 82.9195 30.264 82.9195 28.7725V15.6134C82.9195 14.9715 82.7307 14.4051 82.3342 13.9142C81.9378 13.4234 81.428 13.1024 80.7861 12.9703L79.2568 12.6682V12.2151H91.6985V12.6682L90.4336 12.9703C89.8295 13.1402 89.3197 13.4611 88.9232 13.9142C88.5268 14.3674 88.338 14.9338 88.338 15.5757V28.2628C88.338 30.3773 88.7156 32.001 89.4896 33.1526C90.2448 34.3043 91.3209 34.8895 92.6803 34.8895C93.5299 34.8895 94.4172 34.6253 95.3234 34.0966C96.2485 33.568 97.0037 32.8694 97.6268 32.0009C98.2309 31.1325 98.5519 30.2263 98.5519 29.2823V15.5757C98.5519 14.9338 98.3631 14.3862 97.9666 13.9142C97.5701 13.4611 97.0792 13.1402 96.4562 12.9703L95.1724 12.6682V12.2151H107.614V12.6682L106.085 12.9703C105.443 13.1024 104.914 13.4234 104.537 13.9142L104.518 13.9331Z" fill="#2A2F37"/>
<path d="M128.552 14.2541C128.967 14.8583 129.156 15.519 129.156 16.2365C129.156 17.0105 128.91 17.7846 128.401 18.5398C128.098 19.0118 127.645 19.3894 127.079 19.6537C126.494 19.918 125.927 20.069 125.342 20.069C124.832 20.069 124.417 19.9747 124.115 19.767C124.247 19.3516 124.323 19.0495 124.323 18.8419C124.323 18.3699 124.172 17.8979 123.888 17.407C123.605 16.935 123.209 16.5574 122.737 16.2931C122.189 15.9533 121.661 15.7834 121.151 15.7834C119.791 15.7834 118.526 17.0483 117.375 19.597V32.2464C117.375 32.8883 117.564 33.4547 117.96 33.9456C118.357 34.4365 118.866 34.7574 119.508 34.8896L121.037 35.1917V35.6448H108.294V35.1917L109.823 34.8896C110.465 34.7574 110.993 34.4365 111.371 33.9456C111.749 33.4547 111.956 32.8883 111.956 32.2464V15.6323C111.956 14.9904 111.768 14.424 111.371 13.9331C110.975 13.4423 110.465 13.1213 109.823 12.9891L108.294 12.6871V12.234H117.375V17.6336C118.149 15.9344 119.225 14.5751 120.565 13.5367C121.906 12.4983 123.246 11.9885 124.568 11.9885C125.493 11.9885 126.324 12.2528 127.06 12.7626C127.645 13.178 128.136 13.6877 128.533 14.2918L128.552 14.2541Z" fill="#2A2F37"/>
<path d="M154.303 35.2107V35.6638H145.222V33.2661C144.411 34.2856 143.24 35.1352 141.711 35.8148C140.861 36.2302 139.766 36.4189 138.445 36.4189C135.594 36.4189 133.347 35.8526 131.742 34.7387C130.138 33.6248 129.326 32.0577 129.326 30.0565C129.326 29.0747 129.666 28.1119 130.345 27.1679C131.025 26.2428 132.007 25.3932 133.309 24.638C134.706 23.8262 136.443 23.2032 138.558 22.769C140.672 22.3347 142.9 22.1271 145.241 22.1271V19.0685C145.241 16.7841 144.939 15.1604 144.354 14.1787C143.75 13.1969 142.617 12.7061 140.918 12.7061C139.691 12.7061 138.709 12.9893 137.991 13.5557C137.255 14.1221 136.896 14.9339 136.896 16.0289C136.896 16.5764 137.085 17.1051 137.463 17.6337C137.84 18.1623 138.331 18.4833 138.935 18.6343C138.935 19.2762 138.596 19.8804 137.935 20.409C137.274 20.9565 136.519 21.2208 135.669 21.2208C134.234 21.2208 133.196 20.8054 132.516 19.9559C131.837 19.1063 131.497 18.1434 131.497 17.0484C131.497 15.9534 131.95 14.9339 132.875 14.0843C133.8 13.2347 134.99 12.5739 136.443 12.1208C137.897 11.6677 139.407 11.4412 140.937 11.4412C143.92 11.4412 146.299 12.1397 148.054 13.5368C149.81 14.9339 150.679 16.7841 150.679 19.0874V32.2465C150.679 32.8884 150.867 33.4548 151.264 33.9457C151.66 34.4366 152.17 34.7575 152.812 34.8897L154.341 35.1918L154.303 35.2107ZM145.222 23.7507C142.296 23.7507 140.068 24.3171 138.539 25.4498C137.01 26.5826 136.255 28.2629 136.255 30.4718C136.255 31.7368 136.613 32.7752 137.331 33.6059C138.048 34.4366 138.917 34.8519 139.936 34.8519C140.691 34.8519 141.352 34.682 141.956 34.3233C142.541 33.9646 143.183 33.4548 143.863 32.7752C144.467 32.171 144.939 31.4725 145.241 30.6796V23.7507H145.222Z" fill="#2A2F37"/>
<path d="M155.115 34.9085C155.757 34.7763 156.286 34.4553 156.664 33.9645C157.06 33.4736 157.249 32.9072 157.249 32.2653V3.41717C157.249 2.77527 157.06 2.20883 156.664 1.71796C156.267 1.22709 155.757 0.906132 155.115 0.773974L153.586 0.47195V0.0187988H162.667V32.2841C162.667 32.9261 162.856 33.4925 163.253 33.9834C163.649 34.4742 164.159 34.7952 164.801 34.9273L166.33 35.2294V35.6825H153.586V35.2294L155.115 34.9273V34.9085Z" fill="#2A2F37"/>
<path d="M167.652 34.9085C168.293 34.7763 168.822 34.4553 169.2 33.9645C169.596 33.4736 169.785 32.9072 169.785 32.2653V3.41717C169.785 2.77527 169.596 2.20883 169.2 1.71796C168.803 1.22709 168.293 0.906132 167.652 0.773974L166.122 0.47195V0.0187988H175.203V32.2841C175.203 32.9261 175.392 33.4925 175.789 33.9834C176.185 34.4742 176.695 34.7952 177.337 34.9273L178.866 35.2294V35.6825H166.122V35.2294L167.652 34.9273V34.9085Z" fill="#2A2F37"/>
<path d="M204.863 12.2151V12.6682L202.881 13.2723C202.239 13.48 201.597 13.952 200.993 14.7261C200.389 15.4812 199.841 16.4818 199.369 17.709L190.496 39.9871C189.344 43.1211 188.004 45.7265 186.474 47.841C184.945 49.9555 182.982 50.9939 180.622 50.9939C179.262 50.9939 178.092 50.5785 177.129 49.7478C176.166 48.9171 175.675 47.7466 175.675 46.2551C175.675 44.8958 176.11 43.8574 176.978 43.1777C177.846 42.4792 178.753 42.1393 179.697 42.1393C179.904 42.1393 180.131 42.1771 180.414 42.2338C180.376 42.4037 180.357 42.6491 180.357 42.9512C180.357 43.7064 180.565 44.3294 180.962 44.858C181.377 45.3866 182.019 45.651 182.906 45.651C184.341 45.651 185.663 44.7825 186.89 43.0267C188.117 41.2709 189.099 39.4018 189.854 37.4006C190.062 36.8531 190.156 36.3244 190.156 35.8147C190.156 35.2294 190.024 34.6253 189.741 33.9833L181.792 17.3692C181.188 16.1043 180.395 15.0659 179.451 14.2541C178.507 13.4422 177.431 12.9136 176.242 12.6682V12.2151H188.985V12.6682C188.344 12.8003 187.834 13.1213 187.456 13.6122C187.079 14.103 186.89 14.6883 186.89 15.368C186.89 15.9155 187.003 16.4441 187.249 16.9538L193.101 29.2445L198.048 16.8595C198.218 16.4252 198.293 16.0477 198.293 15.7456C198.293 15.1414 198.104 14.575 197.727 14.0653C197.349 13.5555 196.839 13.1968 196.197 12.9891L195.178 12.6871V12.2339H204.863V12.2151Z" fill="#2A2F37"/>
<path d="M180.603 51.013C173.504 50.6165 172.334 40.4215 180.546 38.6845C189.911 36.7022 198.199 41.271 213.133 48.8795C227.576 56.2615 243.019 60.8304 257.103 46.463C257.103 46.463 257.236 46.1798 257.198 45.6322C257.16 45.0847 257.141 44.5184 257.783 44.4806C258.425 44.4429 258.689 45.4245 258.085 46.0853C240.754 64.7573 222.856 56.4314 207.96 48.7096C190.269 39.5341 184.908 40.9312 182.264 42.064C180.848 42.6682 180.074 44.6316 181.49 45.3491C184.266 46.765 185.908 45.4057 187.777 43.5366" fill="#2A2F37"/>
</svg>
